<?xml version="1.0" standalone="no"?><!DOCTYPE svg PUBLIC "-//W3C//DTD SVG 1.1//EN" "http://www.w3.org/Graphics/SVG/1.1/DTD/svg11.dtd"><svg class="icon" height="512" viewBox="0 0 1024 1024" version="1.1" xmlns="http://www.w3.org/2000/svg"><path d="M576 891.2V960a64 64 0 1 1-128 0v-68.8a384.384 384.384 0 0 1-320-379.072 64 64 0 1 1 128 0c0 141.44 114.56 256.256 256 256.256s256-114.752 256-256.256a64 64 0 1 1 128 0 384.384 384.384 0 0 1-320 379.072z m-64-186.88c-51.008 0-99.84-20.288-135.872-56.448A191.808 191.808 0 0 1 320 511.744V192.192a192 192 0 1 1 384 0v319.552a192.512 192.512 0 0 1-192 192.64z" /></svg>